<svg width="16" height="16" viewBox="0 0 16 16" fill="none" xmlns="http://www.w3.org/2000/svg">
<path fill-rule="evenodd" clip-rule="evenodd" d="M11.02 3.77V5.33L12.02 4.34V2.5L11.52 2H2.52002L2.02002 2.5V2.98599L2 3.00003V13.29L2.36 13.75L7.36 15.47L8 15V13.9999H11.52L12.02 13.4999V12.9999V11.6899L11.02 10.6899V12.9999H8V4.71003L7.67 4.25003L4.03619 3H7.02002H11.02V3.77ZM7 14.28L3 12.94V3.72003L7 5.06003V14.28ZM13.52 8.48005H8.54999V7.48005H13.48L11.88 5.88005L12.59 5.18005L15.06 7.64005V8.35005L12.57 10.8301L11.87 10.1301L13.52 8.48005Z" fill="#424242"/>
</svg>
